<svg width="14" height="14" viewBox="0 0 14 14" fill="none" xmlns="http://www.w3.org/2000/svg">
<path d="M5.44444 10.8889L1.55556 7L2.65222 5.89556L5.44444 8.68778L11.3478 2.78444L12.4444 3.88889L5.44444 10.8889ZM12.4444 0H1.55556C0.692222 0 0 0.692222 0 1.55556V12.4444C0 12.857 0.163888 13.2527 0.455612 13.5444C0.747335 13.8361 1.143 14 1.55556 14H12.4444C12.857 14 13.2527 13.8361 13.5444 13.5444C13.8361 13.2527 14 12.857 14 12.4444V1.55556C14 1.143 13.8361 0.747335 13.5444 0.455612C13.2527 0.163888 12.857 0 12.4444 0Z" fill="#0687E1"/>
</svg>
